<svg xmlns="http://www.w3.org/2000/svg" width="255.365" height="75.041" viewBox="0 0 255.365 75.041"><g transform="translate(0 0)"><g transform="translate(-44.298 -26.359)"><path d="M86.93,49.19a20.67,20.67,0,0,1-2.16,9.39,20.15,20.15,0,0,1-14.72,10.9l-1.67.23a2.73,2.73,0,0,0-1.43.83,2.2,2.2,0,0,0-.53,1.52,26.659,26.659,0,0,0,.15,3.86,7.161,7.161,0,0,0,.07,1.13,2.915,2.915,0,0,0,.15.76,9.87,9.87,0,0,1,.16,1.1A12,12,0,0,1,67,80.16a5.65,5.65,0,0,1-1.44,4.12,5.31,5.31,0,0,1-4,1.48,8.12,8.12,0,0,1-5.15-1.44A7.4,7.4,0,0,1,54,79.7a24.34,24.34,0,0,1-.45-6,98.15,98.15,0,0,0-1.44-15.52Q49.83,43.45,48.78,36a16.43,16.43,0,0,0-.38-2.12,4,4,0,0,1-.08-.91,4.35,4.35,0,0,1,1.14-3.4,4,4,0,0,1,2.95-1.21,4.33,4.33,0,0,1,2.12.53A9.63,9.63,0,0,0,58.85,30a22.85,22.85,0,0,0,5.22-.84,20,20,0,0,1,4.16-.45,17.33,17.33,0,0,1,10,3A20.46,20.46,0,0,1,85,39.28a9.26,9.26,0,0,1,1.1,2.87,35,35,0,0,1,.41,3.64A26,26,0,0,0,86.93,49.19ZM74.52,45.48c0-.3-.12-.79-.19-1.47A13.169,13.169,0,0,0,74,42.15a8,8,0,0,0-2.31-4.08,5.6,5.6,0,0,0-3.83-1.44,9.72,9.72,0,0,0-3.55.83,6.38,6.38,0,0,0-1,.45,3,3,0,0,0-2,2.88,3.56,3.56,0,0,0,.08.83c.2.76.45,2,.76,3.56q.45,1.74,1.25,5.34c.53,2.4,1,4.48,1.55,6.24a2.2,2.2,0,0,0,.64,1.29,1.59,1.59,0,0,0,1.1.45,2.35,2.35,0,0,0,1.59-.6,12.71,12.71,0,0,0,4.58-5.11,18.44,18.44,0,0,0,1.66-7.31Z" transform="translate(-4 -2)" fill="#fff"/><path d="M95.26,80.84h-.69a10.82,10.82,0,0,1-7.19-2.35,7.74,7.74,0,0,1-3-6.36,11.261,11.261,0,0,1,.16-1.59c.3-1.86.6-3.43.9-4.69a17.51,17.51,0,0,1,1.37-3.71A14.33,14.33,0,0,1,89.65,58a3.56,3.56,0,0,1,2.5-1.22,2.56,2.56,0,0,1,1.44.46,29,29,0,0,0,6.13,2.34,6.1,6.1,0,0,1,3.33,2.73l1.74,2.35a1.67,1.67,0,0,0,1.22.45,2,2,0,0,0,1.66-.83c.15-.3.33-.68.53-1.14a4.789,4.789,0,0,1,.61-1.06,3.06,3.06,0,0,1,2.57-1.51,1.84,1.84,0,0,1,1.21.38A2.55,2.55,0,0,1,113.73,62a2.92,2.92,0,0,1,.38,1.44,3.1,3.1,0,0,1-.69,1.89,6.69,6.69,0,0,1-2.3,2.16,6.53,6.53,0,0,1-2.92.87,4.09,4.09,0,0,0-3,.94,4.8,4.8,0,0,0-1.2,2.91,7.49,7.49,0,0,1-.34,1.28q-.27.77-.42,1.14a9.88,9.88,0,0,1-3.41,4.58A8.36,8.36,0,0,1,95.26,80.84Zm5.6-15a7.642,7.642,0,0,0-.08-.8,5.52,5.52,0,0,0-.22-1,2.19,2.19,0,0,0-.76-1.25,2,2,0,0,0-1.29-.49,2.58,2.58,0,0,0-.76.15q-3.18,1.14-4,3.33a22,22,0,0,0-1.44,7.88c.1,1.06.56,1.59,1.37,1.59a3.7,3.7,0,0,0,.9-.16A7.91,7.91,0,0,0,99,71.72a10.64,10.64,0,0,0,1.86-5.87Z" transform="translate(-4 -2)" fill="#fff"/><path d="M117.21,61.15v.08a5.05,5.05,0,0,0,.91-.3,7,7,0,0,1,2.19-.31,6.4,6.4,0,0,0,1.86-.22,2.17,2.17,0,0,0,1.17-.91,9.79,9.79,0,0,0,.91-3.63,13.346,13.346,0,0,1,.3-1.75c.51-2.12.86-3.71,1.06-4.76l1.06-4.77c.3-1,.61-1.9.91-2.65a5.62,5.62,0,0,1,1.29-2,3.13,3.13,0,0,1,5.52,1.21,9.83,9.83,0,0,1,.23,3.25q-.08,2.05-.53,6.51a206.438,206.438,0,0,0-1.44,24.68,13.815,13.815,0,0,0,.08,1.93c.08.53.1,1,.15,1.4s.1,1,.15,1.71.08,1.5.08,2.46a4.93,4.93,0,0,1-.84,3.06,4.61,4.61,0,0,1-2.72,1.56,5.59,5.59,0,0,1-1.89.3,5.93,5.93,0,0,1-2.65-.68,3.25,3.25,0,0,1-1.33-1.4,6.71,6.71,0,0,1-.57-2.08,2,2,0,0,0-2.19-1.9,29.033,29.033,0,0,1-3.26-.15,12.3,12.3,0,0,1-4.54-1.06,9.57,9.57,0,0,1-6-9.23q0-6.36,6.06-9.09a20.411,20.411,0,0,1,2.34-.83C116.4,61.36,117,61.21,117.21,61.15Zm6,6.59q-.45-1.29-1.29-1.29h-.22a7.51,7.51,0,0,0-5.83,5.38,4.26,4.26,0,0,0-.23,1.44,3.74,3.74,0,0,0,1.29,2.8,3.3,3.3,0,0,0,2.42,1,5.39,5.39,0,0,0,1.82-.3c.95-.4,1.46-.93,1.51-1.59Z" transform="translate(-4 -2)" fill="#fff"/><path d="M146.88,83.49a10.23,10.23,0,0,1-4.92-1,5.89,5.89,0,0,1-3.48-6q.75-12,11.36-17.79a8.44,8.44,0,0,1,4-1.06,4.8,4.8,0,0,1,3.14,1,3.49,3.49,0,0,1,1.32,2.62,4.32,4.32,0,0,1-.53,2,1.73,1.73,0,0,1-1.66,1.14h-.3a.81.81,0,0,1-.65-.23,1.82,1.82,0,0,1-.3-.64,4,4,0,0,0-.19-.57c-.2-.76-.5-1.13-.91-1.13a1.65,1.65,0,0,0-1,.6,21.34,21.34,0,0,0-3.94,6.13,19.55,19.55,0,0,0-1.36,3.75q-.45,1.86-1.14,5.34a1.81,1.81,0,0,0,.46,1.51,2,2,0,0,0,1.51.53,7.88,7.88,0,0,0,2.73-.76,29.6,29.6,0,0,0,9.08-6.2l3.18-3.11a2.72,2.72,0,0,1,2-.83h.3a1.44,1.44,0,0,1,1.21,1.36,1.08,1.08,0,0,1-.07.46l-1.14,1.66a50.19,50.19,0,0,1-11.88,9.31A11.17,11.17,0,0,1,146.88,83.49Z" transform="translate(-4 -2)" fill="#fff"/><path d="M183.67,67.74l-.15,3.63-.22,6.06a21.526,21.526,0,0,0,.07,2.42,4.53,4.53,0,0,0,.46,1.86,1.46,1.46,0,0,0,1.43.72,1.49,1.49,0,0,0,1-.38,11.091,11.091,0,0,0,1-1.14,33,33,0,0,0,2.5-3.78l1.28-2a2.76,2.76,0,0,1,.84-.9,1.67,1.67,0,0,1,1-.38,1.34,1.34,0,0,1,.53.07,1.19,1.19,0,0,1,.76,1.06l-.08.31a15.8,15.8,0,0,1-5.45,8.93,7.91,7.91,0,0,1-5.07,1.89,7.13,7.13,0,0,1-5.3-2.35,3.77,3.77,0,0,0-5-1.06,4.53,4.53,0,0,1-1.81.38,6.56,6.56,0,0,1-1.06-.07,2.831,2.831,0,0,1-.76-.15,6.38,6.38,0,0,1-4.2-2.35,8.58,8.58,0,0,1-1.33-5.15,14.12,14.12,0,0,1,.68-4.31,20.79,20.79,0,0,1,2.65-5.34,47.884,47.884,0,0,1,4.17-5.19A9,9,0,0,1,177.32,58a5.37,5.37,0,0,1,5.45,4.39,25.3,25.3,0,0,1,.64,3.4C183.53,66.88,183.62,67.54,183.67,67.74Zm-7.11-2.5A26.55,26.55,0,0,0,171.18,75a5,5,0,0,0-.15,1.44v1c0,1,.35,1.47,1.06,1.51a1.9,1.9,0,0,0,1.52-.37,8.08,8.08,0,0,0,2.65-4.92q.38-2.43,1-7.27a1,1,0,0,0-.7-1.15Z" transform="translate(-4 -2)" fill="#fff"/><path d="M202.07,93.86a7.29,7.29,0,0,1-6.59-2.73,6.31,6.31,0,0,1-1.43-3.86,5.92,5.92,0,0,1,1.28-3.56,16.869,16.869,0,0,1,2.2-2.34,23.418,23.418,0,0,0,1.89-2.05,2.07,2.07,0,0,0,.53-1.21,1.42,1.42,0,0,0-.64-1.1,24.739,24.739,0,0,0-2.39-1.47c-.1-.05-.53-.33-1.29-.83-.2-.11-.93-.53-2.19-1.29l-.53-.53c-2.73-2-4.09-4.21-4.09-6.74a10.43,10.43,0,0,1,2.05-5.83q2.72-4.23,8.7-5.15a4.89,4.89,0,0,1,3.11.69c1.51.85,2.27,1.81,2.27,2.87a3.36,3.36,0,0,1-1.44,2.5l-2.58,2a8.83,8.83,0,0,0-2.12,2.28A7.64,7.64,0,0,0,197.53,69a3,3,0,0,0,.6,1.74,9.74,9.74,0,0,0,2.05,1.89,8.15,8.15,0,0,0,1.59,1.21,15.831,15.831,0,0,1,1.66,1.21,8.92,8.92,0,0,0,1.74,1.14,4.38,4.38,0,0,0,1.74.3,13.41,13.41,0,0,0,3.26-.53l1.44-.45a5.79,5.79,0,0,1,1.66-.3l.91-.08a5.36,5.36,0,0,1,2.65.68c.61.3.91.68.91,1.14a1.21,1.21,0,0,1-1,1.21,11.629,11.629,0,0,1-2.28.38l-1.59.07h.91c.56,0,.33.08-.68.23s-1.74.28-2.19.38a5.75,5.75,0,0,0-1.59.72,1.09,1.09,0,0,0-.46.94,6.33,6.33,0,0,0,.23,1.44,10,10,0,0,0,.42,1.17A13.509,13.509,0,0,1,210,85a9.181,9.181,0,0,1,.3,2.35,5.75,5.75,0,0,1-2,4.62,8.44,8.44,0,0,1-4.92,1.89,2.53,2.53,0,0,1-.72,0,4.781,4.781,0,0,0-.59,0Zm-3.94-6.36a1.51,1.51,0,0,0,.34,1,1,1,0,0,0,.8.41l.3-.07a3.46,3.46,0,0,0,1.86-1.56,4.26,4.26,0,0,0,.64-2.53,1.31,1.31,0,0,0-.76-.83,1.581,1.581,0,0,0-1.59.56,5.53,5.53,0,0,0-1.44,2.16,2.48,2.48,0,0,0-.15.86Z" transform="translate(-4 -2)" fill="#fff"/><path d="M212.74,72.74l2.5-15.07.38-1.51a7.27,7.27,0,0,0,.45-2,2.35,2.35,0,0,0-.6-1.59,2.83,2.83,0,0,0-1.82-.83H212a7.19,7.19,0,0,1-1.22-.07c-.4-.1-1.16-.26-2.27-.46a9.14,9.14,0,0,1-2.87-1,2.1,2.1,0,0,1-1.37-1.89,1.93,1.93,0,0,1,.5-1.14,2,2,0,0,1,1-.61,37.74,37.74,0,0,1,4.84-.9,19.54,19.54,0,0,1,4.39-.16,4.87,4.87,0,0,0,2.62-.64,4.32,4.32,0,0,0,1.62-2.08,29.661,29.661,0,0,1,2.35-4.32,5,5,0,0,1,4.09-2,3.87,3.87,0,0,1,3.93,3.18,4.359,4.359,0,0,1,.16,1,8.67,8.67,0,0,0,.3,3.15,2.35,2.35,0,0,0,1.47,1.43,9.65,9.65,0,0,0,3.52.34,5.89,5.89,0,0,1,3.26.91,3.55,3.55,0,0,1,1.82,2.8,2.79,2.79,0,0,1-2,2.58,10.391,10.391,0,0,1-2.35.83,5,5,0,0,1-1.44.15h-1a13.29,13.29,0,0,0-3.52.34,2.45,2.45,0,0,0-1.51,1.1,9.87,9.87,0,0,0-.8,2.5c-.05.35-.18.93-.38,1.74q-1.37,5.76-3.78,17.26a13.3,13.3,0,0,0-.23,2.42.7.7,0,0,0,.26.68,1.15,1.15,0,0,0,.8.31.6.6,0,0,0,.38-.08,11.21,11.21,0,0,0,3.63-3.25A78.929,78.929,0,0,0,233.11,69a22.75,22.75,0,0,1,3.71-4.54,2.54,2.54,0,0,1,1.43-.45,2,2,0,0,1,.91.22,1.77,1.77,0,0,1,.84,1.59,2,2,0,0,1-.08.61q-3.4,12.18-14.08,17.41a8.3,8.3,0,0,1-3.79.91,8,8,0,0,1-4.24-1.21,9.77,9.77,0,0,1-3.33-3.64A14.57,14.57,0,0,1,212.74,72.74Z" transform="translate(-4 -2)" fill="#fff"/><path d="M234.7,75.08a25.43,25.43,0,0,1,1.21-8.29,50.5,50.5,0,0,1,3.63-8.44,4.44,4.44,0,0,1,4-2.65,11.261,11.261,0,0,1,1.44.16A3,3,0,0,1,246.73,57a2.48,2.48,0,0,1,.46,1.89,41,41,0,0,1-1.52,5.53,113.661,113.661,0,0,0-3.4,11.36,9.48,9.48,0,0,0-.46,3,6.182,6.182,0,0,0,.08,1.13,1.24,1.24,0,0,0,1.36,1.06,1.34,1.34,0,0,0,.53-.07,5.88,5.88,0,0,0,2.88-2.12c.3-.41.63-.87,1-1.4s.76-1.1,1.21-1.71c.1-.15.22-.34.34-.56a5.423,5.423,0,0,1,.49-.72c.51-.86.92-1.52,1.25-2a3.93,3.93,0,0,1,1.33-1.14A1.45,1.45,0,0,1,253,71a.88.88,0,0,1,.68.37,1.59,1.59,0,0,1,.3.84.29.29,0,0,1-.08.22,27.363,27.363,0,0,0-2,3.26q-.23.38-1,1.59c-.53.81-1.14,1.66-1.82,2.57a16.55,16.55,0,0,1-2.31,2.5,7.43,7.43,0,0,1-5,1.82,10.55,10.55,0,0,1-3.11-.46,4.62,4.62,0,0,1-2.46-1.47,5,5,0,0,1-1.2-2.61c-.1-.76-.18-1.62-.23-2.58S234.7,75.44,234.7,75.08Zm14.76-24.6a2.59,2.59,0,0,1-1.06,2.12,4.55,4.55,0,0,1-2.65.83,4.62,4.62,0,0,1-2-.45,4.36,4.36,0,0,1-1.55-1.21,2.76,2.76,0,0,1-.68-1.74,2.84,2.84,0,0,1,.3-1.29,2.56,2.56,0,0,1,1.29-1.36,4.23,4.23,0,0,1,2-.46,4.5,4.5,0,0,1,3,1.1,3.46,3.46,0,0,1,1.35,2.46Z" transform="translate(-4 -2)" fill="#fff"/><path d="M264.29,43.36h.31l-.6,6.89a16.358,16.358,0,0,0-.15,1.82,3.19,3.19,0,0,0,.3,1.44c.66,1.21,1.35,2.43,2.09,3.67a21,21,0,0,0,2.3,3.22,6.592,6.592,0,0,0,.84.83,4.91,4.91,0,0,0,3.1,1.44q2,0,3.56-2.65c.3-.61.57-1.17.79-1.7l.57-1.33a8.781,8.781,0,0,1,1.06-1.74,1.87,1.87,0,0,1,1.44-.68l.38.07a2,2,0,0,1,1.36,1.9,3.561,3.561,0,0,1-.08.83q-2,8-8.78,8.25a3.15,3.15,0,0,1-.45,0,3,3,0,0,0-.76,0c-.86.1-1.28.48-1.28,1.14a1.34,1.34,0,0,0,.07.53,19.129,19.129,0,0,1,.57,3.48c.07,1.16.11,2.62.11,4.39a17.15,17.15,0,0,1-3.18,9.39,5.74,5.74,0,0,1-5,2.87,9.23,9.23,0,0,1-1.37-.15,10.53,10.53,0,0,1-7.87-5.9,18.19,18.19,0,0,1-1.74-8.1,38.12,38.12,0,0,1,1-8.71q1.37-5.67,3.56-17.94l1.82-9.77a15.362,15.362,0,0,1,.91-3.1,2,2,0,0,1,2.27-1.44,2.1,2.1,0,0,1,1.89,1.36,8.72,8.72,0,0,1,1,3.94,21.741,21.741,0,0,1,0,2.23V41.4Zm-1.81,16.89c-.1.2-.22.43-.34.68a4.442,4.442,0,0,0-.27.6,31.581,31.581,0,0,0-1.21,5.26q-.37,2.7-.76,6.7l-.15,1.67a13.14,13.14,0,0,0,1,5.15,9.872,9.872,0,0,0,.83,1.36,2.05,2.05,0,0,0,1.66.83A1.92,1.92,0,0,0,265,81.44a16,16,0,0,0,1-2.27,23,23,0,0,0,.83-5.9,25.33,25.33,0,0,0-.6-5.3,19.62,19.62,0,0,0-3.75-7.72Z" transform="translate(-4 -2)" fill="#fff"/><path d="M296.39,69.94l-.15,3a12.078,12.078,0,0,0-.23,2.35,1.49,1.49,0,0,0,.23.76c.2.15.45.07.76-.23a17.359,17.359,0,0,0,1.36-1.29,11.028,11.028,0,0,1,1.14-1.06L301.31,72a2.73,2.73,0,0,1,1.21-.3,1.16,1.16,0,0,1,1.14,1.13.46.46,0,0,1-.08.31,3.38,3.38,0,0,1-1.06,1.43c-.45.36-.75.61-.9.76A24.67,24.67,0,0,0,299,77.58l-1.7,1.52a6.35,6.35,0,0,0-2,4.39,19.7,19.7,0,0,1-.07,2.27l-.08,2.42A42.5,42.5,0,0,1,294,98.4a5.78,5.78,0,0,1-1.55,3.37,6.38,6.38,0,0,1-3.37,1.47,11,11,0,0,1-1.51.16,6.14,6.14,0,0,1-3.07-.8,6.29,6.29,0,0,1-2.3-2.31,4.76,4.76,0,0,1-.38-4.16,23.61,23.61,0,0,1,4.54-8.33l2.27-2.57A6.16,6.16,0,0,0,289.88,83l.08-.61c0-1-.63-1.49-1.9-1.44a27.218,27.218,0,0,1-4,.23,9.21,9.21,0,0,1-3.78-1,6.32,6.32,0,0,1-3.79-5.91,25.94,25.94,0,0,1,2.2-9.92,7.14,7.14,0,0,1,2-2.49,4.51,4.51,0,0,1,2.65-1.14,2.58,2.58,0,0,1,1.77.57,1.88,1.88,0,0,1,.65,1.47,2.36,2.36,0,0,1-.08.69c-.35,1.06-.83,2.34-1.44,3.86a21.532,21.532,0,0,0-1.13,5.83,22.605,22.605,0,0,0,.07,2.42,2.5,2.5,0,0,0,.84,1.32,2,2,0,0,0,1.28.49,1.65,1.65,0,0,0,1.06-.3,12.73,12.73,0,0,0,2.84-2.46,6,6,0,0,0,1.25-3.22,20.566,20.566,0,0,0,.38-2.72l.23-1.59a5.65,5.65,0,0,1,1.51-2.88,2.29,2.29,0,0,1,1.36-.6,1.68,1.68,0,0,1,1.29.75,5.15,5.15,0,0,1,1.06,2.73,19.522,19.522,0,0,1,.11,2.86Zm-6.58,20.21a11.5,11.5,0,0,0-4.09,6.51,1.829,1.829,0,0,0-.15.91,3.651,3.651,0,0,0,.07.83.85.85,0,0,0,.91.76,1.26,1.26,0,0,0,.61,0,.7.7,0,0,0,.45-.31,2.46,2.46,0,0,0,1-2,33.153,33.153,0,0,0,.69-3.86c.18-1.13.35-2.08.51-2.84Z" transform="translate(-4 -2)" fill="#fff"/></g></g></svg>