<svg xmlns="http://www.w3.org/2000/svg" width="26.012" height="16.929" viewBox="0 0 26.012 16.929">
  <title>結束靜音</title>
  <g transform="translate(-1409.384 -1020.356)">
    <rect width="4.39" height="9.07" rx="2.13" transform="translate(1409.384 1024.28)" fill="#dc4e2f"/>
    <path d="M1292.87,980.88a1.371,1.371,0,0,0-.67,1.18v7.52a1.37,1.37,0,0,0,.67,1.18l5.49,3.32a1.37,1.37,0,0,0,2.09-1.18V978.74a1.37,1.37,0,0,0-2.09-1.18Z" transform="translate(123.194 43)" fill="#dc4e2f"/>
    <path d="M1308.89,985.82l3-3a.87.87,0,1,0-1.23-1.22l-3,3-3-3a.87.87,0,0,0-1.23,0,.86.86,0,0,0,0,1.22l3,3-3,3a.87.87,0,0,0,.61,1.48.89.89,0,0,0,.62-.26l3-3,3,3a.87.87,0,0,0,.61.26.89.89,0,0,0,.62-.26.88.88,0,0,0,0-1.22Z" transform="translate(123.194 43)" fill="#e9502e"/>
  </g>
</svg>