<svg xmlns="http://www.w3.org/2000/svg" width="78.47" height="78.44" viewBox="0 0 78.47 78.44"><g transform="translate(-1035.724 -319.87)"><g transform="translate(123.194 43)" opacity="0.78"><rect width="6.57" height="12.93" rx="2.91" transform="translate(932.55 296.61)" fill="#fff"/></g><g transform="translate(123.194 43)" opacity="0.78"><rect width="6.57" height="12.93" rx="2.91" transform="translate(962.26 296.61)" fill="#fff"/></g><g transform="translate(123.194 43)" opacity="0.7"><path d="M945.54,327.68a7.2,7.2,0,0,1-4.3-1.24c-1.12-.82-2.42-2.45-2.29-5.55a7.81,7.81,0,0,1,4.22-6.53,7.71,7.71,0,0,0,3.84-6.59v-3.23h3.84v3.23a11.56,11.56,0,0,1-5.74,9.9,4.07,4.07,0,0,0-2.33,3.38c-.07,1.71.54,2.15.73,2.29,1,.75,3.37.64,5.86-.26l1.3,3.61a15.678,15.678,0,0,1-5.13.99Z" fill="#fff"/></g><g transform="translate(123.194 43)" opacity="0.7"><path d="M954.68,338.75a21.59,21.59,0,0,1-7.34-1.31l1.43-3.57-.72,1.78.71-1.78c.07,0,6.37,2.46,11.53-.23,3.13-1.63,5.3-4.88,6.44-9.66l3.73.89c-1.41,5.93-4.25,10-8.43,12.2A16,16,0,0,1,954.68,338.75Z" fill="#fff"/></g><g transform="translate(123.194 43)" opacity="0.5"><rect width="77.41" height="77.41" rx="18.47" transform="translate(913.07 277.4)" fill="#fff"/><path d="M972,355.31H931.53a19,19,0,0,1-19-19V295.87a19,19,0,0,1,19-19H972a19,19,0,0,1,19,19v40.47a19,19,0,0,1-19,18.97ZM931.53,277.9a18,18,0,0,0-18,18v40.47a18,18,0,0,0,18,18H972a18,18,0,0,0,18-18v-40.5a18,18,0,0,0-18-18Z" fill="#fff"/></g></g></svg>