<svg xmlns="http://www.w3.org/2000/svg" width="41.148" height="39.15" viewBox="0 0 41.148 39.15">
  <title>播放清單</title>
  <g transform="translate(-123 -800.945)">
    <path d="M37,765.46H3.76a3.76,3.76,0,1,1,0-7.51H37a3.76,3.76,0,1,1,0,7.51Z" transform="translate(123.194 43)" fill="#fff"/>
    <path d="M37,781.28H3.76a3.76,3.76,0,1,1,0-7.51H37a3.76,3.76,0,1,1,0,7.51Z" transform="translate(123.194 43)" fill="#fff"/>
    <path d="M37,797.09H3.76a3.76,3.76,0,1,1,0-7.51H37a3.76,3.76,0,1,1,0,7.51Z" transform="translate(123.194 43)" fill="#fff"/>
  </g>
</svg>