<svg xmlns="http://www.w3.org/2000/svg" width="25.97" height="17.358" viewBox="0 0 25.97 17.358">
  <title>靜音</title>
  <g transform="translate(-1409.384 -987.089)">
    <rect width="4.39" height="9.07" rx="2.13" transform="translate(1409.384 991.45)" fill="#dc4e2f"/>
    <path d="M1292.87,948.05a1.36,1.36,0,0,0-.67,1.18v7.51a1.36,1.36,0,0,0,.67,1.18l5.49,3.33a1.38,1.38,0,0,0,2.09-1.18V945.9a1.38,1.38,0,0,0-2.09-1.18Z" transform="translate(123.194 43)" fill="#dc4e2f"/>
    <path d="M1304.43,957.05a1.07,1.07,0,0,1-.59-.18,1.1,1.1,0,0,1-.33-1.52c2.15-3.33.18-5.31.16-5.33a1.1,1.1,0,1,1,1.53-1.57c1.14,1.11,2.65,4.23.16,8.09a1.1,1.1,0,0,1-.93.51Z" transform="translate(123.194 43)" fill="#dc4e2f"/>
    <path d="M1308.59,960a1.086,1.086,0,0,1-.76-1.86,9.581,9.581,0,0,0,2.13-6.05,8.41,8.41,0,0,0-2.84-6.08,1.1,1.1,0,0,1,1.38-1.71,10.489,10.489,0,0,1,3.66,7.82,11.679,11.679,0,0,1-2.74,7.54A1.06,1.06,0,0,1,1308.59,960Z" transform="translate(123.194 43)" fill="#dc4e2f"/>
  </g>
</svg>